<?xml version="1.0" encoding="UTF-8"?>
<svg width="39px" height="34px" viewBox="0 0 39 34" version="1.1" xmlns="http://www.w3.org/2000/svg" xmlns:xlink="http://www.w3.org/1999/xlink">
    <!-- Generator: Sketch 53.2 (72643) - https://sketchapp.com -->
    <title>Group</title>
    <desc>Created with Sketch.</desc>
    <g id="Mobil" stroke="none" stroke-width="1" fill="none" fill-rule="evenodd">
        <g id="WWC_2_gefunden_mehr_aufgeklappt" transform="translate(-168.000000, -175.000000)">
            <g id="wichtig_Dreieck" transform="translate(168.000000, 175.000000)">
                <g id="Group" transform="translate(0.697167, 0.644736)">
                    <polygon id="Triangle" fill="#FFFFFF" points="18.7943338 1.49347481 36.2858347 31.6137922 1.30283294 31.6137922"></polygon>
                    <path d="M18.7943338,2.98694963 L2.60566589,30.8637922 L34.9830018,30.8637922 L18.7943338,2.98694963 Z M37.5886677,32.3637922 L-1.17239551e-13,32.3637922 L18.7943338,0 L37.5886677,32.3637922 Z" id="Triangle" fill="#E00025" fill-rule="nonzero"></path>
                    <path d="M18.2103868,10.8930375 L20.0510309,10.8930375 L19.7604029,22.2033111 L18.4041388,22.2033111 L18.2103868,10.8930375 Z M19.1307089,24.1892692 C19.8814979,24.1892692 20.5111919,24.8189632 20.5111919,25.5939712 C20.5111919,26.3447603 19.8814979,26.9744543 19.1064899,26.9744543 C18.3557008,26.9744543 17.7260068,26.3447603 17.7260068,25.5939712 C17.7260068,24.8189632 18.3557008,24.1892692 19.1307089,24.1892692 Z" id="!" fill="#E00025" fill-rule="nonzero"></path>
                </g>
            </g>
        </g>
    </g>
</svg>