<?xml version="1.0" encoding="utf-8"?>
<!-- Generator: Adobe Illustrator 23.0.2, SVG Export Plug-In . SVG Version: 6.00 Build 0)  -->
<svg version="1.1" id="Ebene_1" xmlns="http://www.w3.org/2000/svg" xmlns:xlink="http://www.w3.org/1999/xlink" x="0px" y="0px"
	 viewBox="0 0 38 38" style="enable-background:new 0 0 38 38;" xml:space="preserve">
<style type="text/css">
	.st0{display:none;filter:url(#filter-2);}
	.st1{display:inline;fill-rule:evenodd;clip-rule:evenodd;}
	.st2{fill-rule:evenodd;clip-rule:evenodd;fill:#FFFFFF;}
	.st3{fill-rule:evenodd;clip-rule:evenodd;fill:#4A4A4A;}
	.st4{fill:#4A4A4A;}
</style>
<filter  filterUnits="objectBoundingBox" height="146.7%" id="filter-2" width="146.7%" x="-23.3%" y="-16.7%">
	<feOffset  dx="0" dy="2" in="SourceAlpha" result="shadowOffsetOuter1"></feOffset>
	<feGaussianBlur  in="shadowOffsetOuter1" result="shadowBlurOuter1" stdDeviation="2"></feGaussianBlur>
	<feColorMatrix  in="shadowBlurOuter1" type="matrix" values="0 0 0 0 0   0 0 0 0 0   0 0 0 0 0  0 0 0 0.5 0"></feColorMatrix>
</filter>
<g>
	<title>Group 3</title>
	<desc>Created with Sketch.</desc>
	<g id="Symbols">
		<g transform="translate(4.000000, 2.000000)">
			<g id="Group-3">
				<g id="Oval-2">
					<g class="st0">
						<circle id="path-1_1_" class="st1" cx="15" cy="17" r="15"/>
					</g>
					<g>
						<circle class="st2" cx="15" cy="17" r="15"/>
					</g>
				</g>
				<g id="Group" transform="translate(5.000000, 6.000000)">
					<g id="Group-2" transform="translate(4.000000, 3.000000)">
						<rect id="Rectangle-3" y="2" class="st3" width="3" height="12"/>
						<rect x="9" y="2" class="st3" width="3" height="12"/>
						<rect x="4" y="2" class="st3" width="1" height="12"/>
						<rect x="6" y="2" class="st3" width="1" height="12"/>
						<rect x="7" y="2" class="st3" width="1" height="12"/>
						<polygon class="st3" points="4.8,2 5.2,2 5.2,14 4.8,14 						"/>
					</g>
					<polygon id="Path-3" class="st4" points="1.9,2.9 1.9,7 1,7 1,2 5.9,2 5.9,2.9 					"/>
					<polygon class="st4" points="18.1,2.9 18.1,7 18.9,7 18.9,2 14,2 14,2.9 					"/>
					<polygon class="st4" points="1.4,19.1 1.4,15 0.6,15 0.6,20 5.5,20 5.5,19.1 					"/>
					<polygon class="st4" points="18.1,15 19,15 19,20 14.1,20 14.1,19.1 18.1,19.1 					"/>
				</g>
			</g>
		</g>
	</g>
</g>
</svg>
