<?xml version="1.0" encoding="UTF-8"?>
<svg width="75px" height="47px" viewBox="0 0 75 47" version="1.1" xmlns="http://www.w3.org/2000/svg" xmlns:xlink="http://www.w3.org/1999/xlink">
    <!-- Generator: Sketch 53.2 (72643) - https://sketchapp.com -->
    <title>Icon/BPZ</title>
    <desc>Created with Sketch.</desc>
    <g id="Symbols" stroke="none" stroke-width="1" fill="none" fill-rule="evenodd">
        <g id="Services/Beipackzettel/weisserkreis" transform="translate(-15.000000, -26.000000)">
            <g id="Icon/BPZ" transform="translate(15.000000, 26.000000)">
                <rect id="Rectangle-Copy-2" fill="#FFFFFF" x="17" y="0" width="50" height="21"></rect>
                <path d="M18.5,1.5 L18.5,19.5 L65.5,19.5 L65.5,1.5 L18.5,1.5 Z M17,0 L67,0 L67,21 L17,21 L17,0 Z" id="Rectangle-Copy-2" fill="#E00025" fill-rule="nonzero"></path>
                <rect id="Rectangle-Copy-2" fill="#FFFFFF" x="9" y="10" width="50" height="24"></rect>
                <path d="M10.5,11.5 L10.5,32.5 L57.5,32.5 L57.5,11.5 L10.5,11.5 Z M9,10 L59,10 L59,34 L9,34 L9,10 Z" id="Rectangle-Copy-2" fill="#E00025" fill-rule="nonzero"></path>
                <polygon id="Path-6-Copy-2" fill="#E00025" points="59.2857143 10 67 21 58 21 58 10"></polygon>
                <polygon id="Path-6-Copy-2" fill="#E00025" points="50.4285714 20 59 34 49 34 49 20"></polygon>
                <rect id="Rectangle" fill="#FFFFFF" x="0" y="20" width="50" height="27"></rect>
                <path d="M1.5,21.5 L1.5,45.5 L48.5,45.5 L48.5,21.5 L1.5,21.5 Z M0,20 L50,20 L50,47 L0,47 L0,20 Z" id="Rectangle" fill="#E00025" fill-rule="nonzero"></path>
                <polygon id="Path-6-Copy-2" fill="#E00025" points="67.2857143 0 75 11 66 11 66 0"></polygon>
                <g id="Stacked-Group" transform="translate(28.000000, 25.000000)" fill="#E00025" fill-rule="nonzero">
                    <polygon id="Line-7" points="-0.75 2.21875 -0.75 0.71875 14.75 0.71875 14.75 2.21875"></polygon>
                    <polygon id="Line-7" points="-0.75 6.90625 -0.75 5.40625 14.75 5.40625 14.75 6.90625"></polygon>
                    <polygon id="Line-7" points="-0.75 11.59375 -0.75 10.09375 14.75 10.09375 14.75 11.59375"></polygon>
                    <polygon id="Line-7" points="-0.75 16.28125 -0.75 14.78125 14.75 14.78125 14.75 16.28125"></polygon>
                </g>
                <g id="Stacked-Group" transform="translate(7.000000, 25.000000)" fill="#E00025" fill-rule="nonzero">
                    <polygon id="Line-7" points="-0.75 2.21875 -0.75 0.71875 14.75 0.71875 14.75 2.21875"></polygon>
                    <polygon id="Line-7" points="-0.75 6.90625 -0.75 5.40625 14.75 5.40625 14.75 6.90625"></polygon>
                    <polygon id="Line-7" points="-0.75 11.59375 -0.75 10.09375 14.75 10.09375 14.75 11.59375"></polygon>
                    <polygon id="Line-7" points="7.77156117e-16 16.28125 -0.75 16.28125 -0.75 14.78125 14.75 14.78125 14.75 16.28125 14 16.28125"></polygon>
                </g>
            </g>
        </g>
    </g>
</svg>