<?xml version="1.0" encoding="UTF-8"?>
<svg width="49px" height="55px" viewBox="0 0 49 55" version="1.1" xmlns="http://www.w3.org/2000/svg" xmlns:xlink="http://www.w3.org/1999/xlink">
    <!-- Generator: Sketch 53.2 (72643) - https://sketchapp.com -->
    <title>Group 5</title>
    <desc>Created with Sketch.</desc>
    <g id="Mobil" stroke="none" stroke-width="1" fill="none" fill-rule="evenodd">
        <g id="WWC_Doppeltherapie-Copy-2" transform="translate(-166.000000, -160.000000)">
            <g id="Group-5" transform="translate(163.000000, 160.000000)">
                <g id="Group-4" transform="translate(0.000000, 21.000000)">
                    <path d="M32.2580567,9.50211389 L46.4009127,9.55740992 C51.2444579,9.57634732 55.1662561,13.498076 55.1852794,18.3416209 L55.1852794,18.3416209 C55.2041111,23.1363862 51.3324519,27.0385776 46.5376865,27.0574093 C46.515006,27.0574984 46.4923253,27.0574986 46.4696448,27.0574099 L32.3267889,27.0021139 C27.4832437,26.9831765 23.5614455,23.0614478 23.5424222,18.2179029 L23.5424222,18.2179029 C23.5235905,13.4231376 27.3952497,9.52094618 32.1900151,9.50211449 C32.2126956,9.50202541 32.2353763,9.50202521 32.2580567,9.50211389 Z" id="Rectangle-Copy" fill="#FFFFFF" transform="translate(39.363851, 18.279762) rotate(60.000000) translate(-39.363851, -18.279762) "></path>
                    <path d="M32.2521921,11.0021024 C32.2240492,11.0020291 32.2240492,11.0020291 32.1959064,11.0021029 C28.2295618,11.0176809 25.0268326,14.245667 25.0424107,18.2120117 C25.0581983,22.2317231 28.3129419,25.486409 32.3326536,25.5021254 L46.4755095,25.5574214 C46.5036524,25.5574947 46.5036524,25.5574947 46.5317952,25.5574209 C50.4981398,25.5418429 53.700869,22.3138568 53.6852909,18.3475121 C53.6695033,14.3278007 50.4147597,11.0731148 46.395048,11.0573985 L32.2521921,11.0021024 Z M46.4009127,9.55740992 C51.2444579,9.57634732 55.1662561,13.498076 55.1852794,18.3416209 C55.2041111,23.1363862 51.3324519,27.0385776 46.5376865,27.0574093 C46.515006,27.0574984 46.4923253,27.0574986 46.4696448,27.0574099 L32.3267889,27.0021139 C27.4832437,26.9831765 23.5614455,23.0614478 23.5424222,18.2179029 C23.5235905,13.4231376 27.3952497,9.52094618 32.1900151,9.50211449 C32.2126956,9.50202541 32.2353763,9.50202521 32.2580567,9.50211389 L46.4009127,9.55740992 Z" id="Rectangle-Copy" fill="#267ADB" fill-rule="nonzero" transform="translate(39.363851, 18.279762) rotate(60.000000) translate(-39.363851, -18.279762) "></path>
                    <path d="M8.6058807,9.89193263 L22.7553853,9.94609895 C27.5980447,9.96463734 31.5192239,13.8857443 31.5378514,18.7284034 L31.5378514,18.7284034 C31.5562952,23.5232982 27.6842166,27.42528 22.8893218,27.4437238 C22.8671115,27.4438092 22.844901,27.4438094 22.8226907,27.4437244 L8.6731861,27.3895581 C3.83052669,27.3710197 -0.0906524412,23.4499127 -0.109279947,18.6072537 L-0.109279947,18.6072537 C-0.127723726,13.8123589 3.74435486,9.91037702 8.53924963,9.89193325 C8.5614599,9.89184781 8.58367042,9.89184761 8.6058807,9.89193263 Z" id="Rectangle-Copy-3" fill="#FFFFFF" transform="translate(15.714286, 18.667829) rotate(-119.000000) translate(-15.714286, -18.667829) "></path>
                    <path d="M8.60013852,11.3919216 C8.57257896,11.3918514 8.57257896,11.3918514 8.54501941,11.3919221 C4.57854563,11.4071794 1.37545174,14.6350101 1.39070896,18.6014839 C1.40616718,22.6202141 4.66019781,25.8741848 8.67892827,25.8895691 L22.8284329,25.9437354 C22.8559925,25.9438056 22.8559925,25.9438056 22.883552,25.9437349 C26.8500258,25.9284777 30.0531197,22.7006469 30.0378625,18.7341732 C30.0224042,14.715443 26.7683736,11.4614722 22.7496432,11.446088 L8.60013852,11.3919216 Z M22.7553853,9.94609895 C27.5980447,9.96463734 31.5192239,13.8857443 31.5378514,18.7284034 C31.5562952,23.5232982 27.6842166,27.42528 22.8893218,27.4437238 C22.8671115,27.4438092 22.844901,27.4438094 22.8226907,27.4437244 L8.6731861,27.3895581 C3.83052669,27.3710197 -0.0906524412,23.4499127 -0.109279947,18.6072537 C-0.127723726,13.8123589 3.74435486,9.91037702 8.53924963,9.89193325 C8.5614599,9.89184781 8.58367042,9.89184761 8.6058807,9.89193263 L22.7553853,9.94609895 Z" id="Rectangle-Copy-3" fill="#267ADB" fill-rule="nonzero" transform="translate(15.714286, 18.667829) rotate(-119.000000) translate(-15.714286, -18.667829) "></path>
                    <path d="M35.7207692,3.58620918 L44.1086655,3.61900435 L44.173961,20.2440044 L35.7860648,20.2112092 C31.1846968,20.1932187 27.4589885,16.4675764 27.4409164,11.8662088 L27.4409164,11.8662088 C27.4230263,7.3111817 31.1011026,3.60409986 35.6561297,3.58620975 C35.6776761,3.58612513 35.6992228,3.58612493 35.7207692,3.58620918 Z" id="Rectangle-Copy-2" fill="#267ADB" transform="translate(35.807406, 11.915075) rotate(60.000000) translate(-35.807406, -11.915075) "></path>
                    <path d="M19.0721021,16.7672345 L27.4633821,16.7993575 L27.5273222,33.4221017 L19.1360422,33.3899787 C14.5355158,33.3723672 10.8103956,29.6473156 10.7926995,25.0467894 L10.7926995,25.0467894 C10.7751779,20.4916394 14.4536526,16.7847566 19.0088026,16.7672351 C19.0299024,16.7671539 19.0510024,16.7671537 19.0721021,16.7672345 Z" id="Rectangle-Copy-4" fill="#267ADB" transform="translate(19.159980, 25.094638) rotate(-119.000000) translate(-19.159980, -25.094638) "></path>
                </g>
                <polygon id="Path" fill="#267ADB" points="26.2706115 0 26.2706115 9.05882353 31 9.05882353 24.3776019 22 24.3776019 12.9411765 19 12.9411765"></polygon>
            </g>
        </g>
    </g>
</svg>