<?xml version="1.0" encoding="UTF-8"?>
<svg width="18px" height="12px" viewBox="0 0 18 12" version="1.1" xmlns="http://www.w3.org/2000/svg" xmlns:xlink="http://www.w3.org/1999/xlink">
    <!-- Generator: Sketch 53.2 (72643) - https://sketchapp.com -->
    <title>Group</title>
    <desc>Created with Sketch.</desc>
    <g id="Symbols" stroke="none" stroke-width="1" fill="none" fill-rule="evenodd">
        <g id="button/rund/40px/vorwaerts-copy" transform="translate(-12.000000, -15.000000)" fill="#4A4A4A" fill-rule="nonzero">
            <g id="button/weiss/rund/vorwaerts">
                <g id="Group" transform="translate(21.000000, 21.000000) rotate(90.000000) translate(-21.000000, -21.000000) translate(14.500000, 12.500000)">
                    <path d="M7,17 C7,17.2761424 6.77614237,17.5 6.5,17.5 C6.22385763,17.5 6,17.2761424 6,17 L6,2.33333333 C6,2.05719096 6.22385763,1.83333333 6.5,1.83333333 C6.77614237,1.83333333 7,2.05719096 7,2.33333333 L7,17 Z" id="Line-4"></path>
                    <path d="M6.5,1.78569043 L1.38568664,7.98485814 C1.20995434,8.19786699 0.894817372,8.22808561 0.681808523,8.05235331 C0.468799674,7.87662101 0.43858106,7.56148404 0.614313361,7.34847519 L6.5,0.214309566 L12.3856866,7.34847519 C12.5614189,7.56148404 12.5312003,7.87662101 12.3181915,8.05235331 C12.1051826,8.22808561 11.7900457,8.19786699 11.6143134,7.98485814 L6.5,1.78569043 Z" id="Path-14"></path>
                </g>
            </g>
        </g>
    </g>
</svg>