<?xml version="1.0" encoding="utf-8"?>
<!-- Generator: Adobe Illustrator 23.0.2, SVG Export Plug-In . SVG Version: 6.00 Build 0)  -->
<svg version="1.1" id="Ebene_1" xmlns="http://www.w3.org/2000/svg" xmlns:xlink="http://www.w3.org/1999/xlink" x="0px" y="0px"
	 viewBox="0 0 40 40" style="enable-background:new 0 0 40 40;" xml:space="preserve">
<style type="text/css">
	.st0{fill-rule:evenodd;clip-rule:evenodd;fill:#FFFFFF;}
	.st1{fill:#4A4A4A;}
</style>
<circle class="st0" cx="20" cy="20" r="20"/>
<g id="Group" transform="translate(10.666667, 10.166667) rotate(90.000000) translate(-10.666667, -10.166667) translate(9.166667, 0.166667)">
	<path class="st1" d="M12.5-8.6V10c0,0.3-0.2,0.5-0.5,0.5s-0.5-0.2-0.5-0.5V-8.6c0-0.3,0.2-0.5,0.5-0.5S12.5-8.9,12.5-8.6z"/>
</g>
<g transform="translate(9.333333, 0.000000)">
	<path class="st1" d="M10.6,31.2c-0.3,0-0.5-0.2-0.5-0.5v-20c0-0.3,0.2-0.5,0.5-0.5s0.5,0.2,0.5,0.5v20
		C11.1,30.9,10.9,31.2,10.6,31.2z"/>
</g>
</svg>
