<?xml version="1.0" encoding="UTF-8"?>
<svg width="54px" height="57px" viewBox="0 0 54 57" version="1.1" xmlns="http://www.w3.org/2000/svg" xmlns:xlink="http://www.w3.org/1999/xlink">
    <!-- Generator: sketchtool 53.2 (72643) - https://sketchapp.com -->
    <title>403B6CC6-09E0-4032-A967-7E72E3B322A4</title>
    <desc>Created with sketchtool.</desc>
    <defs>
        <polygon id="path-1" points="0 0.000100571431 29.9647498 0.000100571431 29.9647498 35.1422728 0 35.1422728"></polygon>
    </defs>
    <g id="Mobil" stroke="none" stroke-width="1" fill="none" fill-rule="evenodd">
        <g id="WWC_Schwerwiegend" transform="translate(-161.000000, -163.000000)">
            <g id="Stop" transform="translate(161.000000, 163.000000)">
                <g id="Group" transform="translate(0.000000, -1.100000)">
                    <path d="M2.75000006,18.235577 L2.75000006,40.0644243 L16.5714367,54.4500012 L37.3285645,54.4500012 L51.1500011,40.0644243 L51.1500011,18.235577 L37.3285645,3.85000008 L16.5714367,3.85000008 L2.75000006,18.235577 Z M15.4000003,1.10000002 L38.5000008,1.10000002 L53.9000012,17.1285718 L53.9000012,41.1714295 L38.5000008,57.2000012 L15.4000003,57.2000012 L0,41.1714295 L0,17.1285718 L15.4000003,1.10000002 Z" id="Path-2" fill="#FFFFFF" fill-rule="nonzero"></path>
                    <path d="M19.1322229,41.9222231 L17.6089173,41.9222231 C17.5469943,41.2333342 17.0516104,40.8333342 16.2589961,40.8333342 C15.5778432,40.8333342 15.05769,41.1777787 15.05769,41.6333342 C15.05769,41.8666676 15.2063052,42.0666676 15.4787664,42.2000009 C15.7140737,42.311112 15.7140737,42.311112 16.8410722,42.711112 C18.2900702,43.2444454 18.4882238,43.3333343 18.8349925,43.6777787 C19.1817613,44.0111121 19.3675302,44.4777787 19.3675302,45.0111121 C19.3675302,46.4222232 18.2281472,47.300001 16.4199958,47.300001 C14.3889217,47.300001 13.2743079,46.3777788 13.2000003,44.6333343 L14.7356905,44.6333343 C14.8347673,45.5888899 15.4044588,46.0666677 16.4323804,46.0666677 C17.2126101,46.0666677 17.7451479,45.7444454 17.7451479,45.2777788 C17.7451479,44.9888899 17.5593789,44.7555565 17.1754563,44.5666676 C16.9525336,44.4555565 16.9525336,44.4555565 15.7512275,44.0111121 C14.7976135,43.6444454 14.3269987,43.4000009 14.0173838,43.1000009 C13.6582304,42.7333343 13.4724614,42.2777787 13.4724614,41.7777787 C13.4724614,40.5000009 14.6366137,39.6000009 16.2961499,39.6000009 C17.3488407,39.6000009 18.2281472,39.9777786 18.7235311,40.6333342 C18.9836077,40.9888898 19.0950691,41.3333342 19.1322229,41.9222231 Z M19.7947989,39.7444453 L25.7394061,39.7444453 L25.7394061,40.9555564 L23.5597168,40.9555564 L23.5597168,47.1555566 L21.9744882,47.1555566 L21.9744882,40.9555564 L19.7947989,40.9555564 L19.7947989,39.7444453 Z M29.8944388,39.6000009 C32.1484357,39.6000009 33.6222029,41.1222231 33.6222029,43.4444454 C33.6222029,44.7111121 33.2135112,45.7333343 32.4208969,46.4111121 C31.7768978,46.9777788 30.8728221,47.300001 29.9068234,47.300001 C27.6156727,47.300001 26.1666747,45.7777788 26.1666747,43.3888898 C26.1666747,42.2000009 26.6001357,41.1444453 27.3555962,40.4888898 C28.0243645,39.911112 28.9160556,39.6000009 29.8944388,39.6000009 Z M29.8944388,40.8222231 C28.6064406,40.8222231 27.8138263,41.811112 27.8138263,43.4111121 C27.8138263,45.0888899 28.5816714,46.0777788 29.8944388,46.0777788 C31.1948217,46.0777788 31.9750514,45.0888899 31.9750514,43.4444454 C31.9750514,41.811112 31.1948217,40.8222231 29.8944388,40.8222231 Z M34.8916243,39.7444453 L36.8236216,39.7444453 C38.0373122,39.7444453 38.6070038,39.8000009 39.1643107,39.9666675 C40.1179248,40.2444453 40.7000009,41.0666676 40.7000009,42.1000009 C40.7000009,43.1555565 40.0683864,43.9777787 39.0900031,44.2333343 C38.6193884,44.3444454 38.0868506,44.3888899 36.9722368,44.3888899 L36.4768529,44.3888899 L36.4768529,47.1555566 L34.8916243,47.1555566 L34.8916243,39.7444453 Z M36.4768529,43.1777787 L36.9846214,43.1777787 C37.9010817,43.1777787 38.1116198,43.1555565 38.4212348,43.0555565 C38.8299265,42.9222232 39.0776185,42.5555565 39.0776185,42.0888898 C39.0776185,41.6444453 38.8670803,41.3000009 38.5203116,41.1333342 C38.2106966,41.0000009 37.8763125,40.9555564 37.058929,40.9555564 L36.4768529,40.9555564 L36.4768529,43.1777787 Z" id="STOP" fill="#FFFFFF" fill-rule="nonzero"></path>
                    <g id="Group-3" transform="translate(14.300000, 0.000000)">
                        <mask id="mask-2" fill="white">
                            <use xlink:href="#path-1"></use>
                        </mask>
                        <g id="Clip-2"></g>
                        <path d="M11.8867081,35.1912972 C11.725708,35.2009678 11.5606627,35.2025796 11.3988535,35.1961325 C10.612461,35.1655087 8.20716778,35.0220606 7.44504662,34.4095853 C6.59312138,33.725386 5.47421102,33.1588464 4.78004971,29.9312629 C4.53167264,28.7740071 4.5591802,26.2370701 4.29300413,23.613903 C3.80919473,18.8446549 3.10694296,13.57495 3.0810535,12.9753689 C3.05354594,12.3362994 3.57133526,12.1896277 3.8634008,12.1243507 C4.31646646,12.0244205 4.61176818,12.3153463 4.78004971,12.8456209 C5.11256754,13.8916642 6.16999042,19.4248946 6.44992027,19.8367036 C6.68858878,20.1856533 7.29294601,20.1050645 7.31802643,19.5868782 C7.45394612,16.827516 7.3900315,9.3625708 7.3900315,9.3625708 C7.3900315,9.3625708 7.37870486,8.86936704 7.69827796,8.60422973 C8.23143915,8.16179694 9.29857058,8.00626046 9.44258073,9.3625708 C9.66911356,11.4893106 10.1092345,18.5561468 10.1092345,18.5561468 C10.1092345,18.5988589 10.1553501,19.1436395 10.7758882,19.1267158 C11.018602,19.1202687 11.5711803,19.0130856 11.6075873,18.5561468 C11.7006276,17.3940556 11.6075873,8.40356349 11.6075873,8.40356349 C11.6075873,8.40356349 11.5857431,7.04000015 12.678764,7.04000015 C13.7725939,7.04000015 13.6892622,7.52433914 13.7725939,8.20128548 C13.9578654,9.69137331 14.0258253,18.0476311 14.0258253,18.0476311 C14.0258253,18.0476311 13.9934634,19.3749295 14.957037,19.4047474 C15.6819421,19.4265064 15.9586357,18.8825316 15.981289,18.1556202 C16.0621936,15.4776527 16.1439072,11.1202136 16.1439072,11.1202136 C16.1439072,11.1202136 16.2248118,9.28117607 17.5556922,9.28117607 C18.3161952,9.28117607 18.4100445,9.72683241 18.542728,10.1886065 C18.5734718,10.2982074 18.6503311,10.7237165 18.6511402,11.0484895 C18.6535673,12.6989492 18.7498438,23.2923535 18.7498438,23.2923535 C18.7498438,23.2923535 18.7053463,25.6987365 20.6009406,24.2908493 C21.8484892,23.3640776 22.5774395,22.4590648 23.0547766,21.8103245 C23.2457114,21.5500226 23.7610735,20.8488996 24.0361491,20.679663 C24.6081445,20.3274897 25.7731705,19.7424147 26.540955,20.2888071 C27.2100359,20.7650872 25.5506829,22.8031792 23.9973149,25.0387139 C22.8250075,26.7278562 21.4617653,29.4791595 20.9407398,30.3237306 C19.760342,32.2369099 20.2117896,31.6832645 18.9229796,33.0516632 C17.164114,34.918101 15.7766004,34.9624248 11.8867081,35.1912972" id="Fill-1" fill="#FFFFFF" mask="url(#mask-2)"></path>
                    </g>
                </g>
            </g>
        </g>
    </g>
</svg>