<?xml version="1.0" encoding="UTF-8" standalone="no"?>
<svg
   xmlns:dc="http://purl.org/dc/elements/1.1/"
   xmlns:cc="http://creativecommons.org/ns#"
   xmlns:rdf="http://www.w3.org/1999/02/22-rdf-syntax-ns#"
   xmlns:svg="http://www.w3.org/2000/svg"
   xmlns="http://www.w3.org/2000/svg"
   id="svg8"
   version="1.1"
   viewBox="0 0 16 39"
   height="39"
   width="16">
  <metadata
     id="metadata14">
    <rdf:RDF>
      <cc:Work
         rdf:about="">
        <dc:format>image/svg+xml</dc:format>
        <dc:type
           rdf:resource="http://purl.org/dc/dcmitype/StillImage" />
        <dc:title></dc:title>
      </cc:Work>
    </rdf:RDF>
  </metadata>
  <defs
     id="defs12" />
  <g
     id="g6"
     fill-rule="evenodd"
     fill="none">
    <path
       style="fill:#ffffff;fill-opacity:1"
       id="path2"
       d="M16,6 L16,7.75735931 C16,10.4738765 14.9208677,13.0791323 13,15 L13,15 L13,34 C13,36.7614237 10.7614237,39 8,39 C5.23857625,39 3,36.7614237 3,34 L3,15 C1.07913226,13.0791323 -3.32677411e-16,10.4738765 0,7.75735931 L0,7.75735931 L0,6 L16,6 Z M8,21 C6.9456382,21 6.08183488,21.8158778 6.00548574,22.8507377 L6,23 L6,26 C6,27.1045695 6.8954305,28 8,28 C9.0543618,28 9.91816512,27.1841222 9.99451426,26.1492623 L10,26 L10,23 C10,21.8954305 9.1045695,21 8,21 Z M16,-2.84217094e-14 L16,4 L0,4 L0,-2.84217094e-14 L16,-2.84217094e-14 Z"
       fill="#4A4A4A" />
    <circle
       fill="#E30613"
       id="circle4"
       r="2"
       cy="23"
       cx="8" />
  </g>
</svg>
