<?xml version="1.0" encoding="UTF-8"?>
<svg width="39px" height="35px" viewBox="0 0 39 35" version="1.1" xmlns="http://www.w3.org/2000/svg" xmlns:xlink="http://www.w3.org/1999/xlink">
    <!-- Generator: Sketch 53.2 (72643) - https://sketchapp.com -->
    <title>wechselwirkung_icon</title>
    <desc>Created with Sketch.</desc>
    <g id="wechselwirkung_icon" stroke="none" stroke-width="1" fill="none" fill-rule="evenodd">
        <g fill="#E00025">
            <path d="M33.1852416,18.3384488 L33.1852416,8.48203987 C33.1852416,4.52514675 30.0280075,1.31726324 26.13359,1.31726324 C22.2391724,1.31726324 19.0819383,4.52514675 19.0819383,8.48203987 L19.0819383,27.4202873 C19.0819383,30.5216674 16.6073803,33.035923 13.554968,33.035923 C10.5025558,33.035923 8.02799781,30.5216674 8.02799781,27.4202873 L8.02799781,17.5638784 L12.6630294,22.2848852 L13.7455532,21.1888681 L7.26565708,14.6050193 L0.785760947,21.1888681 L1.86447307,22.2848852 L6.50331636,17.5638784 L6.50331636,27.4202873 C6.50331636,31.3771804 9.66055046,34.5850639 13.554968,34.5850639 C17.4493856,34.5850639 20.6066197,31.3771804 20.6066197,27.4202873 L20.6066197,8.48203987 C20.6066197,5.3806598 23.0811777,2.86640413 26.13359,2.86640413 C29.1860022,2.86640413 31.6605602,5.3806598 31.6605602,8.48203987 L31.6605602,18.3384488 L27.0255286,13.6174419 L25.9430048,14.7134591 L32.4229009,21.2973079 L38.902797,14.7134591 L37.8240849,13.6174419 L33.1852416,18.3384488 Z" id="Fill-1"></path>
            <ellipse id="Oval-8" cx="32.5574717" cy="29.6305842" rx="4.55747171" ry="4.63058419"></ellipse>
            <ellipse id="Oval-8-Copy" cx="7.43265666" cy="5.36439382" rx="4.55747171" ry="4.63058419"></ellipse>
        </g>
    </g>
</svg>